<svg width="34" height="34" viewBox="0 0 34 34" fill="none" xmlns="http://www.w3.org/2000/svg">
<g clip-path="url(#clip0_12_15)">
<path d="M32.1235 34.0001C33.1597 34.0001 34 33.16 34 32.1236V1.87651C34 0.840039 33.1597 0 32.1235 0H1.87651C0.839906 0 0 0.840039 0 1.87651V32.1236C0 33.16 0.839906 34.0001 1.87651 34.0001H32.1235Z" fill="#395185"/>
<path d="M20.0572 32.3V20.2961H24.4768L25.1385 15.618H20.0572V12.6311C20.0572 11.2766 20.4699 10.3536 22.6003 10.3536L25.3175 10.3525V6.16842C24.8474 6.11139 23.2345 5.98401 21.3581 5.98401C17.4404 5.98401 14.7584 8.16413 14.7584 12.1679V15.618H10.3275V20.2961H14.7584V32.3H20.0572Z" fill="white"/>
</g>
<defs>
<clipPath id="clip0_12_15">
<rect width="34" height="34" rx="17" fill="white"/>
</clipPath>
</defs>
</svg>
